<?xml version="1.0" encoding="UTF-8"?>
<svg id="Camada_1" data-name="Camada 1" xmlns="http://www.w3.org/2000/svg" viewBox="0 0 58.66 57.59">
  <defs>
    <style>
      .cls-1 {
        fill: #7955fe;
      }

      .cls-1, .cls-2, .cls-3, .cls-4, .cls-5, .cls-6, .cls-7, .cls-8, .cls-9, .cls-10, .cls-11, .cls-12, .cls-13, .cls-14 {
        stroke-width: 0px;
      }

      .cls-2 {
        fill: #fefefe;
      }

      .cls-3 {
        fill: #3565fe;
      }

      .cls-4 {
        fill: #299dfe;
      }

      .cls-5 {
        fill: #089dfe;
      }

      .cls-6 {
        fill: #9b45fe;
      }

      .cls-7 {
        fill: #914bfe;
      }

      .cls-8 {
        fill: #5d5cfe;
      }

      .cls-9 {
        fill: #4b60fe;
      }

      .cls-10 {
        fill: #5c5efe;
      }

      .cls-11 {
        fill: #8d4dfe;
      }

      .cls-12 {
        fill: #3d9efe;
      }

      .cls-13 {
        fill: #00a1fe;
      }

      .cls-14 {
        fill: #7d52fe;
      }
    </style>
  </defs>
  <path class="cls-6" d="M47.71,41.42c2.75,2.72,5.5,5.44,8.23,8.18.71.71,1.5,1.35,2.05,2.21,1.1,1.71.81,3.66-.75,4.97-1.4,1.18-3.58,1.06-4.96-.31-3.05-3.02-6.08-6.06-9.1-9.11-.43-.43-.72-.6-1.27-.15-.54.44-1.15.84-1.84,1.06-.27-.33-.16-.67.15-.82.55-.25.45-.63.54-1.12.15-.9-.07-2.12,1.21-2.53.35-.11.37-.42.4-.71.05-.37.17-.73.49-.91,1-.56,1.75-1.42,2.62-2.14.93-.77,1.98-.85,3.08-.37-.18.26-.36.51-.53.77-.65.15-.59.53-.33.98Z"/>
  <path class="cls-3" d="M3.15,13.85c.72-1.7,1.83-3.15,3.03-4.52,3.43-3.93,7.47-7.04,12.57-8.37C22.65-.06,26.67-.33,30.7.45c-.23,1.83-1.61,2.8-2.63,3.87.6-.11,1.41.13,2.22.27.28.05.69.09.61.57-.77.44-1.53.03-2.28-.04-6.6-.64-12.38,1.19-17.25,5.73-1,.93-1.9,1.95-2.71,3.05-.19.26-.38.53-.7.66-.85.08-1.7.21-2.54-.11-.4-.15-.73.18-1.08.31-.74.26-1.16-.06-1.19-.92Z"/>
  <path class="cls-7" d="M48.57,39.67c-1.66-.22-3.04.18-4.03,1.65-.22.32-.65.53-1.02.71-.62.29-.99.67-.92,1.42.05.45-.14.74-.69.67-.37-.05-.81-.04-.46.54.17.29-.05.42-.17.59-.36.5-.6.96-.13,1.56.22.28.12.65-.36.66-.55,0-.75.29-.72.8-2.38,1.49-4.93,2.54-7.65,3.23-1.28.01-1.51-.23-1.27-1.46.14-.71.25-1.4-.04-2.11-.1-.24-.07-.51.05-.76.29-.41.77-.47,1.2-.59,4.73-1.41,8.44-4.25,11.3-8.22,2.09-2.9,3.33-6.16,3.77-9.72.04-.36.05-.71.28-1.02.16-.31.13-.64.1-.96-.11-1.01.37-1.67,1.19-2.15.56-.33,1.18-.55,1.78-.78.88-.33,1.48.17,1.5,1.11.03,1.16-.09,2.33.07,3.49-.21,4.13-1.68,7.84-3.78,11.34Z"/>
  <path class="cls-14" d="M17.58,50.82c-2.65-.79-5-2.17-7.15-3.86-3.64-2.85-6.47-6.37-8.28-10.66-.26-.63-.48-1.27-.72-1.91.18-.16.36-.08.54-.01,1.5.55,2.07.41,3.18-.78.15-.17.29-.35.52-.43.51.05.54.52.68.85,1.26,2.93,3,5.52,5.34,7.71,1.9,1.77,4.03,3.16,6.4,4.2.47.21.99.32,1.38.7.59.67.77,1.32-.09,1.94-.24.17-.29.49-.32.78-.13,1.05-.32,1.24-1.49,1.46Z"/>
  <path class="cls-10" d="M30.88,5.18c-.75-.74-1.77-.4-2.64-.66-.2-.06-.43,0-.66,0,1.06-1.18,2.37-2.11,2.79-3.72.04-.14.21-.23.32-.35,3.87.6,7.34,2.12,10.53,4.37,1.74,1.23,3.3,2.61,4.69,4.22-.22.43-.7.68-.71,1.26,0,.34-.39.53-.71.56-.85.07-1.57.45-2.31.81-.87-.3-1.39-1.04-2.05-1.6-2.34-1.99-4.96-3.41-7.92-4.24-.47-.13-1.05-.11-1.35-.64Z"/>
  <path class="cls-1" d="M42.17,11.58c.58-.46,1.12-.9,1.97-.87.44.02,1.14-.07.89-.99-.11-.41.53-.53.9-.68,4.09,4.77,6.52,10.19,6.48,16.58,0,.91-.03,1.81-.05,2.72-.37-1.03-.06-2.1-.18-3.15-.04-.38.25-.91-.3-1.1-.48-.16-.99-.44-1.47.18-.21.26-.81.18-1.15.39-.72.44-1.37.95-1.19,1.99.06.35.12.75-.07,1.11,0,.01-.06,0-.08,0-.03-.01-.05-.04-.07-.07-.25-.3-.21-.67-.21-1.02.01-5-1.51-9.47-4.48-13.48-.37-.5-1.06-.82-.98-1.59Z"/>
  <path class="cls-11" d="M17.58,50.82c.67-.42,1.54-.67,1.26-1.79-.04-.16.13-.49.29-.58.95-.48.59-1.11.25-1.76.41-.29.82-.1,1.22.01,3.16.87,6.35.87,9.56.37.38-.06.77-.19,1.13.06.22,1.18.37,2.33.04,3.54-.24.85.7.59,1.11.82-5.02,1.28-9.97,1.14-14.85-.68Z"/>
  <path class="cls-8" d="M5.75,33.15c-1.32,1.99-2.17,2.23-4.31,1.24C.38,31.57,0,28.62.01,25.62c0-.81-.08-1.63.19-2.41.48.78,1.19.92,2,.65.69-.23,1.44-.17,2.08-.67.41-.31.48.29.63.57-.14,2.63,0,5.24.68,7.8.14.52.44,1.03.15,1.6Z"/>
  <path class="cls-9" d="M4.71,23.66c-.19.19-.02-.82-.41-.11-.3.54-3.45.87-3.88.46-.25-.23-.14-.54-.22-.81.29-3.33,1.28-6.45,2.94-9.36.41.93.68,1.07,1.39.51.46-.36.83-.18,1.27-.09.53.11,1.07.51,1.62-.02.16-.15.28.21.47.25.19.44-.13.74-.3,1.07-1.18,2.26-2.12,4.6-2.45,7.15-.05.35-.11.71-.44.94Z"/>
  <path class="cls-7" d="M47.71,41.42c-.22-.28-.67-.5-.48-.92.17-.39.53-.22.81-.06-.11.33-.22.65-.33.98Z"/>
  <path class="cls-2" d="M4.71,23.66c.38-3.29,1.53-6.32,3.19-9.16,3.81-5.44,8.91-8.74,15.56-9.62,2.51-.33,4.96-.07,7.43.3,4.4,1.01,8.14,3.17,11.29,6.39,1.87,2.12,3.33,4.5,4.34,7.14,1.11,2.88,1.4,5.89,1.33,8.96-.31,2.21-.7,4.4-1.59,6.47-2.74,6.39-7.39,10.65-14.03,12.73-.31.1-.62.18-.93.27-4.01.91-7.98.73-11.91-.44-3.53-1.31-6.59-3.31-9.14-6.09-2-2.19-3.39-4.73-4.48-7.46-.95-3.1-1.4-6.25-1.04-9.49Z"/>
  <path class="cls-13" d="M17.06,19.19c-.04-4.75,3.66-9.27,9.11-9.33,5.09-.06,9.22,4.28,9.19,9.47-.03,4.96-4.24,9.01-9.33,8.98-4.93-.03-8.98-4.16-8.96-9.12Z"/>
  <path class="cls-4" d="M20.33,44.56c-2.99-.82-5.53-2.39-7.61-4.69-.18-.32-.37-.63.05-.93.19-.13.33-.32.36-.56.1-.68.54-.77,1.07-.55.74.31,1.43.32,2.12-.14.4-.27.82-.21,1.12.2.38.54.74.4,1.11,0,.15-.17.33-.32.45-.51.5-.77,1.15-1.13,2.09-1.36.96-.23,1.88-.8,2.85-1.13.3-.1.42-.43.35-.74-.15-.67.17-.96.72-1.28.51-.3.89-.84,1.39-1.21.3-.22.58-.41,1.05-.37-1.16-.41-2.42.48-3.59-.62,1.8-.2,3.44.04,5.06-.15,2.02.04,3.89.62,5.68,1.54.77.86.61,1.75.11,2.68-.29.54-.49,1.13-.75,1.69-.21.45-.54.77-1.08.46-.46-.26-.81.08-1.2.18-.37.09-.21.39-.13.64.31.93.26,1.03-.73,1.13-.56.05-.81.33-.91.83-.18.92-.72,1.48-1.66,1.68-.98.22-1.76.9-2.42,1.55-.7.69-1.47.7-2.27.72-.36.01-.8-.1-1,.2-.58.83-1.37.83-2.22.72Z"/>
  <path class="cls-12" d="M20.33,44.56c.09-.04.18-.12.26-.12.7-.01,1.31-.07,1.74-.8.17-.28.73-.37,1.29-.27.6.11,1.31-.01,1.98-.67.7-.69,1.6-1.51,2.71-1.64.97-.11,1.29-.75,1.36-1.5.08-.86.55-1.02,1.23-.94.24.02.46.09.62-.12.22-.3-.1-.45-.21-.66-.26-.5-.63-.98.43-1.1.54-.06,1-.57,1.53.09.1.13.45-.23.5-.47.14-.68.56-1.23.78-1.87.22-.66.86-1.33-.04-1.98-.05-.04.05-.29.09-.44,2.73,1.24,4.64,3.35,6.21,5.82.42.66-.12.97-.41,1.3-1.93,2.25-4.31,3.91-7.08,4.96-4.15,1.58-8.38,1.8-12.66.58-.12-.03-.22-.11-.33-.17Z"/>
  <path class="cls-5" d="M28.93,30.53c-1.17.36-2.38.07-3.57.16-.35.02-.71,0-1.07.08,1.2.51,2.49,0,3.78.23-.48.66-1.33.64-1.9,1.12-.5.42-.7,1.3-1.61,1.26-.15,0-.06.39-.03.61.12.68-.04,1.06-.85,1.3-.69.2-1.69.06-2.02,1.06-.06.17-.22-.05-.32-.03-.73.13-1.55,0-1.95.96-.18.45-.65.8-1.04,1.14-.32.29-.72.36-.95-.13-.34-.74-.71-.65-1.27-.21-.58.45-1.25.36-1.89.02-.41-.21-.88-.46-.87.39,0,.19-.02.53-.3.56-.65.07-.25.55-.37.82-1.75-1.75-1.5-1.34-.39-2.94,2.86-4.15,6.87-6.29,11.92-6.43,1.56-.04,3.12.02,4.68.03Z"/>
  <path class="cls-5" d="M15.1,38.71c-.02.65-.56.6-.84.87-.07-.14-.22-.29-.19-.4.17-.65.77-.02,1.03-.47Z"/>
</svg>