<?xml version="1.0" encoding="UTF-8"?>
<svg id="Camada_1" data-name="Camada 1" xmlns="http://www.w3.org/2000/svg" viewBox="0 0 179.88 57.77">
  <defs>
    <style>
      .cls-1 {
        fill: #6a56fe;
      }

      .cls-1, .cls-2, .cls-3, .cls-4, .cls-5, .cls-6, .cls-7, .cls-8, .cls-9, .cls-10, .cls-11, .cls-12, .cls-13, .cls-14, .cls-15, .cls-16, .cls-17 {
        stroke-width: 0px;
      }

      .cls-2 {
        fill: #122035;
      }

      .cls-3 {
        fill: #7354fe;
      }

      .cls-4 {
        fill: #5f5dfe;
      }

      .cls-5 {
        fill: #0b0e1a;
      }

      .cls-6 {
        fill: #0d101d;
      }

      .cls-7 {
        fill: #010516;
      }

      .cls-8 {
        fill: #7850fe;
      }

      .cls-9 {
        fill: #f5f4f4;
      }

      .cls-10 {
        fill: #595dfe;
      }

      .cls-11 {
        fill: #509ffe;
      }

      .cls-12 {
        fill: #5f9dfe;
      }

      .cls-13 {
        fill: #020309;
      }

      .cls-14 {
        fill: #122036;
      }

      .cls-15 {
        fill: #8848fe;
      }

      .cls-16 {
        fill: #112036;
      }

      .cls-17 {
        fill: #4865fe;
      }
    </style>
  </defs>
  <path class="cls-15" d="M52.53,29.01c-.08,2.54-.9,4.89-1.85,7.2-.63,1.54-1.41,3-2.31,4.39-.39.61-.27.91.2,1.38,3.04,3.03,6.07,6.07,9.07,9.14,1.93,1.97,1.61,4.84-.65,6.15-1.5.87-3.28.6-4.63-.73-2.94-2.9-5.89-5.79-8.8-8.73-.61-.62-.99-.76-1.79-.22-1.6,1.08-3.34,1.81-5.15,2.65-.26.12-.41.2-.6.32-.66.17-1.29.38-1.93.59-.35.11-.73.15-.79-.4-.02-.16-.06-.33-.21-.42-.62-.36-.35-.73-.13-1.21.25-.53.66-1.1.06-1.76-.34-.37.17-.6.47-.76.79-.4,1.69-.54,2.4-1.12.28-.49.81-.63,1.25-.9,4.99-3.02,8.2-7.39,9.83-12.95.12-.4.2-.82.42-1.19.47-1.53,1.7-2.04,3.11-2.31.32-.06.61-.18.92-.29.84-.3.99-.2,1.03.72,0,.16-.02.32.09.46Z"/>
  <path class="cls-17" d="M.23,28.8c-.01-.43-.03-.86-.04-1.29-.13-1.03-.12-2.06,0-3.09.06-4.32,1.5-8.22,3.74-11.82C7.28,7.22,11.9,3.26,17.94,1.25,22-.1,26.26-.32,30.53.42c.63.11,1.26.2,1.89.3-1.02.92-1.06,2.34-1.77,3.42-.18.28.04.47.22.66.42.43.05.52-.28.62-.75.06-1.48-.14-2.23-.19-8.59-.59-15.32,2.62-20.12,9.8-.42.62-.75,1.3-1.06,1.97-.16.35-.31.72-.67.93-.6.12-1.17.65-1.83.15-.05-.04-.15-.06-.19-.02-.72.78-1.92.64-2.66,1.47-.53.59-.6,1.27-.74,1.95-.44,2.04-.43,4.12-.43,6.19,0,.39.2.95-.43,1.13Z"/>
  <path class="cls-2" d="M122.88,22.78c-.29,0-.59-.03-.88,0-.61.08-.85-.09-1.01-.77-.28-1.19-1.29-1.67-2.42-1.77-1.24-.11-2.45.03-3.21,1.18-.7,1.07-.25,2.33,1.07,2.82,1.3.49,2.66.81,3.98,1.23.61.19,1.24.39,1.81.67,2.96,1.46,3.59,5.32,1.27,7.69-2.52,2.59-8.39,2.54-10.87-.08-.74-.78-1.1-1.74-1.31-2.77-.08-.41-.03-.7.51-.63.35.04.72.03,1.07,0,.99-.09,1.68,0,2.21,1.17.82,1.82,4.55,1.9,5.79.3.8-1.05.45-2.34-.84-2.99-1.23-.61-2.6-.76-3.89-1.18-.28-.09-.56-.13-.84-.22-2.81-.88-4-2.47-3.81-5.09.18-2.5,2.05-4.45,4.67-4.87,1.56-.25,3.11-.26,4.62.27,1.96.68,3.18,2.03,3.7,4.04.18.71.15,1.14-.75.99-.29-.05-.58,0-.88,0Z"/>
  <path class="cls-8" d="M35.89,45.59c-.13.61-.73.55-1.13.76-.53.28-1.12.46-1.67.68.09.54.63.16.79.55-.23.35-.64.69-.37,1.25.1.2-.11.33-.26.47-.43.41-.42.43.11.68.24.11.25.3.21.48-.16.85.29.6.76.47.55-.15,1.1-.47,1.71-.39-1.94.91-3.92,1.4-5.97,1.68-7.18.99-13.71-.63-19.5-5.04-1.37-1.05-2.63-2.21-3.78-3.5.7-.46,1.4-.97,2.31-.86.69.08,1.1-.1,1.21-.88.12-.79.36-.84,1.01-.3.3.25.56.54.97.61.47.17.82.53,1.21.82,6.41,4.8,13.37,5.61,20.82,2.85.5-.18.96-.59,1.56-.33Z"/>
  <path class="cls-14" d="M156.81,23.93c.21.04.27-.13.37-.25,2.06-2.61,5.75-1.93,7.47-.12,2.46,2.6,2.38,8.13-.21,10.6-2.15,2.05-4.91,1.97-7.45-.3v5.89c-.35-.05-.25-.33-.25-.53-.01-1.43,0-2.85.02-4.28.03-.13-.19.03-.06,0,.02,0,.03.02.03.07.02,1.36-.01,2.73.02,4.09,0,.51-.1.75-.69.77-2.24.08-2.24.1-2.24-2.13,0-4.72,0-9.43,0-14.15q0-1.2,1.17-1.21,1.61-.01,1.85,1.56Z"/>
  <path class="cls-14" d="M73.59,32.13c-.89,2.03-2.54,3.09-4.63,3.41-2.97.45-5.78.17-7.85-2.41-1.24-2.26-1.19-4.72-1.16-7.2.03-2.4.02-4.81,0-7.21,0-.71.21-.96.95-.95,2.38,0,2.38-.02,2.38,2.34,0,2.95,0,5.91,0,8.86,0,.77.01,1.55.59,2.18,1.77,2.3,4.99,2.18,6.59-.24.54-.76.51-1.66.52-2.52.03-3.22.04-6.44,0-9.65-.01-.79.24-.97.99-.96,2.25.03,2.25,0,2.25,2.28,0,1.85,0,3.71,0,5.56,0,2.19.16,4.4-.62,6.52Z"/>
  <path class="cls-14" d="M175.43,29.64c-1.27,0-2.54.02-3.8-.01-.46-.01-.61.1-.59.59.08,2.07,1.47,3.33,3.89,2.82.6-.12,1.04-.54,1.22-1.15.14-.47.42-.56.86-.53.71.04,1.43.02,2.14,0,.44-.01.53.06.4.55-.57,2.13-2.03,3.28-4.1,3.64-3.63.63-6.7-.84-7.6-4.45-.45-1.8-.35-3.61.32-5.35,1.04-2.71,3.83-4.23,6.75-3.75,2.9.48,4.81,2.8,4.93,5.99q.06,1.65-1.6,1.65c-.94,0-1.89,0-2.83,0Z"/>
  <path class="cls-14" d="M96.66,29.64c-1.3,0-2.6.03-3.9-.01-.52-.01-.58.19-.54.63.18,2.09,1.63,3.22,3.69,2.83.63-.12,1.21-.42,1.4-1.06.2-.67.62-.71,1.18-.67.45.04.91,0,1.37,0q1.16,0,.76,1.06c-.73,2-2.3,2.92-4.28,3.19-4.44.62-7.45-2.03-7.49-6.5-.01-1.28.1-2.52.65-3.7,1.17-2.53,3.94-3.94,6.68-3.4,2.72.53,4.62,2.7,4.82,5.48q.15,2.14-1.99,2.14c-.78,0-1.56,0-2.34,0Z"/>
  <path class="cls-14" d="M139.23,28.71c-.08-5.26,4.4-7.85,8.88-6.33,2.48.84,3.91,3.24,3.93,6.43.02,3.38-1.74,5.93-4.57,6.67-4.58,1.18-8.24-1.82-8.24-6.76Z"/>
  <path class="cls-14" d="M77.91,31.52c.33,0,.65.02.98,0,.43-.03.65.05.85.54.54,1.36,3.08,1.74,4.09.67.68-.71.45-1.75-.54-2.09-1.01-.35-2.06-.55-3.09-.83-.47-.13-.93-.25-1.39-.42-1.29-.49-2.26-1.28-2.38-2.78-.12-1.55.39-2.88,1.72-3.68,2.32-1.38,4.75-1.39,7.12-.09,1.1.61,1.68,1.65,1.92,2.91.1.52-.07.54-.47.53-.52-.02-1.04-.04-1.56,0-.74.07-1.16-.05-1.46-.9-.43-1.21-2.82-1.36-3.6-.34-.59.76-.33,1.7.65,2,1.08.34,2.2.5,3.29.8,1.37.37,2.69.87,3.26,2.34.69,1.8-.26,4-2.18,4.84-2.14.94-4.35.97-6.5,0-1.21-.55-1.99-1.49-2.33-2.81-.17-.63,0-.74.57-.69.35.03.71,0,1.07,0Z"/>
  <path class="cls-4" d="M30.61,5.22c.12-.06.51-.04.07-.25-.57-.27-.72-.59-.2-1.08.64-.6.74-1.53.92-2.25.19-.75.64-.67,1.02-.93,6.97,1.71,12.4,5.58,16.23,11.66.08.36-.15.27-.32.2-.27-.13-.39-.42-.6-.62-.52-.51-1.01-.45-1.56.03-1.06.89-1.07,1.97-.71,3.16.09.3.39.67-.17.85-.34-.11-.5-.4-.67-.67-3.11-4.89-7.41-8.15-13.06-9.58-.35-.09-.81-.03-.96-.52Z"/>
  <path class="cls-16" d="M126.07,28.82c-.01-3.51,1.82-6,4.97-6.75,3.12-.75,6.11.97,6.93,3.95.21.76.19,1.19-.76,1.05-.22-.03-.45,0-.68,0-.94.01-1.9.26-2.1-1.23-.1-.74-.92-1.09-1.75-1.12-1.02-.04-1.93.24-2.39,1.17-.94,1.91-1.04,3.91.06,5.77,1.11,1.87,3.5,1.67,4.46-.27.1-.19.12-.44.44-.43.88.01,1.76,0,2.63,0,.45,0,.29.26.24.52-.38,2.28-2.41,4.04-4.83,4.18-4.41.25-7.19-2.39-7.21-6.84Z"/>
  <path class="cls-3" d="M45.31,15.93c.22-.69-.39-1.21-.32-1.92.07-.8.83-2.66,1.56-2.72.37-.03,1.04-.17,1.4.45.13.23.13.83.71.65,2.29,3.54,3.67,7.37,3.96,11.61.12,1.69-.1,3.34-.08,5.02-.05-.08-.16-.16-.16-.24.04-1.1-.42-1.06-1.14-.53-.15.11-.39.21-.53.17-1.07-.34-1.55.84-2.49.93-.47.04-.09,1.02-.71,1.23-.27-.23-.19-.53-.15-.82.61-4.48.13-8.8-1.89-12.9-.14-.29-.29-.59-.15-.93Z"/>
  <path class="cls-1" d="M12.2,42.44c-.75.08-.92-.74-1.48-.96-.04.03-.13.06-.13.09-.14,1.57-.14,1.46-1.84,1.45-.6,0-1.27.48-1.94.66-2.73-3.16-4.76-6.7-5.8-10.76.1-.66-.24-1.25-.29-1.88-.02-.22-.14-.48.11-.62.24-.14.47.04.58.22.35.62.75.64,1.34.29.6-.35,1.34-.08,2-.28.32-.1.47.24.61.51.1.18-.22.57.27.56.53.54.59,1.29.85,1.94,1.13,2.88,2.67,5.48,4.91,7.64.34.33.78.61.83,1.16Z"/>
  <path class="cls-10" d="M5.51,31.68c-.05.16-.09.5-.25.05-.2-.54-.11-1.1-1.15-.72-.63.23-1.45.16-2.1.6-.28.19-.37-.05-.46-.28-.13-.32-.22-.69-.66-.81-.24.83.59,1.58.13,2.39-.46-1.33-.62-2.72-.77-4.11.3-.34.18-.75.16-1.12-.08-2.44.08-4.85.59-7.24.21-.96,1.28-1.95,2.23-1.91.44.02.56-.24.73-.51.29-.48.62-.67,1.05-.14.27.33.52.35.78,0,.22-.3.45-.33.67,0,.22.43.03.83-.11,1.21-1.32,3.79-1.47,7.65-.72,11.57.07.35.16.7-.11,1.02Z"/>
  <path class="cls-14" d="M106.01,24.32c.53.04.38-.5.59-.73.32-.35.54-.79,1.01-.99.6-.1,1.13-.47,1.78-.42.46.03.74.19.74.69,0,.23,0,.45,0,.68q0,1.27-1.24,1.37c-1.6.14-2.47.91-2.72,2.53-.31,1.97-.1,3.95-.14,5.93-.04,2.12.12,1.76-1.75,1.78-1.37.02-1.37,0-1.38-1.38,0-3.47,0-6.95,0-10.42,0-1.07.01-1.07,1.09-1.08q1.66,0,1.85,1.69c.01.13.07.25.15.35Z"/>
  <path class="cls-5" d="M106.01,24.32c-.12.02-.18.35-.34.11-.08-.11-.01-.32-.02-.48-.03-1.55-.59-1.95-2.12-1.57-.4.1-.41.35-.41.65,0,3.8,0,7.6,0,11.4,0,.45.17.67.63.63.03,0,.06,0,.1,0,2.49-.03,1.93.27,2.01-1.88.07-1.84-.15-3.69.17-5.53.34-1.97,1.34-2.95,3.32-2.9.59.02.61-.19.62-.63.05-1.95-.09-2.05-2-1.43-.14.05-.25.02-.35-.09.29-.14.56-.32.86-.42,1.64-.55,1.87-.38,1.87,1.32,0,.1,0,.19,0,.29q0,1.31-1.26,1.32c-1.83,0-2.8,1.01-2.83,3.06-.04,2.14-.04,4.29,0,6.43,0,.58-.09.82-.73.75-.89-.1-2.09.38-2.6-.19-.44-.49-.13-1.66-.13-2.53,0-3.18.03-6.37-.03-9.55-.01-.8.24-1.03.97-.91.09.02.19,0,.29,0q2.11,0,2.01,2.15Z"/>
  <path class="cls-6" d="M63.87,31.14c-.28.21-.34-.06-.38-.22-.21-.71-.42-1.42-.42-2.18.02-3.31-.01-6.63.02-9.94,0-.73-.22-.94-.94-.94-2,.02-2-.02-2,2.01,0,2.79.02,5.59,0,8.38-.01,1.58.14,3.1,1.05,4.46.11.17.07.3-.09.41-1-1.32-1.28-2.86-1.3-4.45-.04-3.44,0-6.88-.03-10.32,0-.52.09-.76.68-.71.71.05,1.43.06,2.14,0,.67-.06.86.14.86.83-.04,3.24-.02,6.49-.02,9.73,0,1,.01,2,.44,2.93Z"/>
  <path class="cls-7" d="M73.59,32.13c-.13-.12-.19-.28-.11-.44.73-1.5.53-3.11.53-4.7.01-2.73-.02-5.47.02-8.2.01-.74-.23-.94-.95-.93-1.99.01-1.99-.02-1.99,2.02,0,3.03-.01,6.05,0,9.08,0,.6-.14,1.16-.28,1.72-.03.12-.04.46-.35.23.36-1.39.43-2.8.41-4.22-.02-2.79,0-5.59-.01-8.38,0-.49.09-.69.63-.65.93.06,2.17-.32,2.73.15.59.49.16,1.76.17,2.7.02,2.5,0,5,0,7.5,0,1.43-.17,2.83-.81,4.13Z"/>
  <path class="cls-13" d="M156.81,23.93c-.5-1.45-.5-1.42-2.17-1.38-.62.01-.76.25-.76.81.02,5.2.02,10.4,0,15.6,0,.58.16.81.77.8,2.42-.06,1.93.28,1.97-1.93.02-1.29,0-2.59.19-3.89,0,1.56,0,3.12,0,4.68,0,.38-.13.78.16,1.13-.09.47-.47.24-.7.24-.87-.02-2.02.38-2.52-.14-.43-.45-.13-1.6-.14-2.44,0-4.75.02-9.5-.02-14.24,0-.83.23-1.11,1.02-.96.16.03.32,0,.49,0q1.73,0,1.69,1.72Z"/>
  <path class="cls-10" d="M.18,24.43c0,1.03,0,2.06,0,3.09-.21-1.03-.27-2.06,0-3.09Z"/>
  <path class="cls-9" d="M5.51,31.68c-.42-1.93-.7-3.88-.67-5.86.04-2.75.6-5.39,1.6-7.94,2.43-5.5,6.39-9.41,12.02-11.57,3.68-1.41,7.47-1.89,11.37-1.13.25.05.52.03.78.04,2.62.64,5.15,1.51,7.43,3,3.05,1.98,5.46,4.56,7.27,7.71,2.05,3.84,2.89,7.93,2.52,12.26-.07.8-.22,1.59-.33,2.38-1.6,6.59-5.29,11.57-11.29,14.81-.11.06-.21.14-.32.21-3.16,1.38-6.42,2.24-9.9,2.17-4.95-.1-9.33-1.72-13.17-4.85-.2-.16-.41-.31-.62-.47-3.32-2.91-5.43-6.57-6.7-10.76Z"/>
  <path class="cls-9" d="M162.93,28.57c-.01.95-.09,1.71-.39,2.45-.48,1.18-1.34,1.8-2.59,1.85-1.21.05-2.22-.65-2.69-1.86-.5-1.31-.58-2.66-.2-4.01.42-1.5,1.63-2.36,3.1-2.27,1.39.08,2.43,1.13,2.69,2.75.07.41.07.84.08,1.09Z"/>
  <path class="cls-9" d="M173.81,24.54c1.39,0,2.49.94,2.7,2.29.07.42.01.64-.51.63-1.49-.04-2.97-.02-4.46,0-.29,0-.48,0-.45-.4.1-1.4,1.29-2.5,2.72-2.51Z"/>
  <path class="cls-9" d="M97.79,27.42h-5.48c.23-1.96,1.03-2.83,2.61-2.87,1.61-.05,2.5.83,2.87,2.87Z"/>
  <path class="cls-9" d="M148.61,28.94c.08.55-.1,1.19-.26,1.81-.35,1.31-1.35,2.12-2.54,2.16-1.33.05-2.36-.61-2.79-1.95-.51-1.55-.53-3.13.17-4.64.49-1.06,1.34-1.63,2.55-1.6,1.17.03,1.94.63,2.4,1.66.35.77.49,1.6.48,2.56Z"/>
  <path class="cls-12" d="M26.61,30.53c2.93-.24,5.94.23,8.73,1.78,2.39,1.33,4.19,3.24,5.64,5.53.39.61.07.95-.26,1.35-2.64,3.17-6.04,5.12-10.02,5.96-5.63,1.2-10.91.3-15.65-3.11-1.19-.86-2.22-1.89-3.18-3.01-.33-.39-.37-.69-.11-1.11,2.7-4.37,6.53-6.96,11.71-7.38.97-.08,1.95-.01,3.14-.01Z"/>
  <path class="cls-11" d="M17.15,19.14c.06-5.23,4.23-9.35,9.39-9.28,5.13.07,9.08,4.34,9.02,9.76-.05,4.96-4.31,8.87-9.59,8.82-4.86-.05-8.88-4.29-8.82-9.3Z"/>
</svg>